# Converted from Low_Poly_Mobile_Phone.glb (CC-BY 4.0 by kimmy.k)
mtllib 手机_外壳.mtl
o 手机_外壳
v -0.027224 0.015962 0.077500
v -0.027224 0.003045 0.077500
v 0.027028 0.003045 0.077500
v 0.027028 0.015962 0.077500
v -0.027224 0.003045 -0.077500
v -0.027224 0.015962 -0.077500
v 0.027028 0.015962 -0.077500
v 0.027028 0.003045 -0.077500
v 0.038652 0.015962 0.065876
v 0.038652 0.003045 0.065876
v 0.038652 0.003045 -0.065876
v 0.038652 0.015962 -0.065876
v -0.038848 0.015962 -0.065876
v -0.038848 0.003045 -0.065876
v -0.038848 0.003045 0.065876
v -0.038848 0.015962 0.065876
v -0.038705 0.003045 0.067695
v -0.038705 0.015962 0.067695
v -0.038279 0.003045 0.069468
v -0.038279 0.015962 0.069468
v -0.037581 0.003045 0.071153
v -0.037581 0.015962 0.071153
v -0.036628 0.003045 0.072708
v -0.036628 0.015962 0.072708
v -0.035444 0.003045 0.074095
v -0.035444 0.015962 0.074095
v -0.034057 0.003045 0.075280
v -0.034057 0.015962 0.075280
v -0.032501 0.003045 0.076233
v -0.032501 0.015962 0.076233
v -0.030816 0.003045 0.076931
v -0.030816 0.015962 0.076931
v -0.029043 0.003045 0.077357
v -0.029043 0.015962 0.077357
v 0.028846 0.003045 0.077357
v 0.028846 0.015962 0.077357
v 0.030620 0.003045 0.076931
v 0.030620 0.015962 0.076931
v 0.032305 0.003045 0.076233
v 0.032305 0.015962 0.076233
v 0.033860 0.003045 0.075280
v 0.033860 0.015962 0.075280
v 0.035247 0.003045 0.074095
v 0.035247 0.015962 0.074095
v 0.036432 0.003045 0.072708
v 0.036432 0.015962 0.072708
v 0.037385 0.003045 0.071153
v 0.037385 0.015962 0.071153
v 0.038083 0.003045 0.069468
v 0.038083 0.015962 0.069468
v 0.038509 0.003045 0.067695
v 0.038509 0.015962 0.067695
v -0.038705 0.015962 -0.067695
v -0.038705 0.003045 -0.067695
v -0.038279 0.015962 -0.069468
v -0.038279 0.003045 -0.069468
v -0.037581 0.015962 -0.071153
v -0.037581 0.003045 -0.071153
v -0.036628 0.015962 -0.072708
v -0.036628 0.003045 -0.072708
v -0.035444 0.015962 -0.074095
v -0.035444 0.003045 -0.074095
v -0.035444 0.015962 -0.074095
v -0.034057 0.015962 -0.075280
v -0.034057 0.003045 -0.075280
v -0.035444 0.003045 -0.074095
v -0.032501 0.015962 -0.076233
v -0.032501 0.003045 -0.076233
v -0.030816 0.015962 -0.076931
v -0.030816 0.003045 -0.076931
v -0.029043 0.015962 -0.077357
v -0.029043 0.003045 -0.077357
v 0.028846 0.015962 -0.077357
v 0.028846 0.003045 -0.077357
v 0.030620 0.015962 -0.076931
v 0.030620 0.003045 -0.076931
v 0.032305 0.015962 -0.076233
v 0.032305 0.003045 -0.076233
v 0.033860 0.015962 -0.075280
v 0.033860 0.003045 -0.075280
v 0.035247 0.015962 -0.074095
v 0.035247 0.003045 -0.074095
v 0.035247 0.015962 -0.074095
v 0.036432 0.015962 -0.072708
v 0.036432 0.003045 -0.072708
v 0.035247 0.003045 -0.074095
v 0.037385 0.015962 -0.071153
v 0.037385 0.003045 -0.071153
v 0.038083 0.015962 -0.069468
v 0.038083 0.003045 -0.069468
v 0.038509 0.015962 -0.067695
v 0.038509 0.003045 -0.067695
v 0.038509 0.015962 -0.067695
v 0.038083 0.015962 -0.069468
v 0.035408 0.015962 -0.064601
v 0.035804 0.015962 -0.062952
v 0.037385 0.015962 -0.071153
v 0.034759 0.015962 -0.066169
v 0.036432 0.015962 -0.072708
v 0.033873 0.015962 -0.067615
v 0.032771 0.015962 -0.068905
v 0.031481 0.015962 -0.070006
v 0.030035 0.015962 -0.070892
v 0.028468 0.015962 -0.071542
v 0.026819 0.015962 -0.071938
v 0.025128 0.015962 -0.072071
v -0.025324 0.015962 -0.072071
v -0.027015 0.015962 -0.071938
v -0.028664 0.015962 -0.071542
v -0.030231 0.015962 -0.070892
v -0.031678 0.015962 -0.070006
v -0.032967 0.015962 -0.068905
v -0.036628 0.015962 -0.072708
v -0.034069 0.015962 -0.067615
v -0.037581 0.015962 -0.071153
v -0.034955 0.015962 -0.066169
v -0.038279 0.015962 -0.069468
v -0.035604 0.015962 -0.064601
v -0.038705 0.015962 -0.067695
v -0.036000 0.015962 -0.062952
v -0.038848 0.015962 -0.065876
v -0.036133 0.015962 -0.061261
v -0.038848 0.015962 0.065876
v -0.036133 0.015962 0.061261
v -0.038705 0.015962 0.067695
v -0.036000 0.015962 0.062952
v -0.038279 0.015962 0.069468
v -0.035604 0.015962 0.064601
v -0.037581 0.015962 0.071153
v -0.034955 0.015962 0.066169
v -0.036628 0.015962 0.072708
v -0.034069 0.015962 0.067615
v -0.032967 0.015962 0.068905
v -0.031678 0.015962 0.070006
v -0.030231 0.015962 0.070892
v -0.028664 0.015962 0.071542
v -0.027015 0.015962 0.071938
v -0.025324 0.015962 0.072071
v 0.025128 0.015962 0.072071
v 0.026819 0.015962 0.071938
v 0.028468 0.015962 0.071542
v 0.030035 0.015962 0.070892
v 0.031481 0.015962 0.070006
v 0.032771 0.015962 0.068905
v 0.036432 0.015962 0.072708
v 0.033873 0.015962 0.067615
v 0.037385 0.015962 0.071153
v 0.034759 0.015962 0.066169
v 0.038083 0.015962 0.069468
v 0.035408 0.015962 0.064601
v 0.038509 0.015962 0.067695
v 0.035804 0.015962 0.062952
v 0.038652 0.015962 0.065876
v 0.035937 0.015962 0.061261
v 0.038652 0.015962 -0.065876
v 0.035937 0.015962 -0.061261
v 0.035408 0.015962 -0.064601
v 0.035804 0.015962 -0.062952
v 0.034759 0.015962 -0.066168
v 0.033873 0.015962 -0.067615
v 0.031481 0.015962 -0.070006
v 0.030035 0.015962 -0.070892
v 0.028468 0.015962 -0.071542
v 0.026819 0.015962 -0.071938
v 0.025128 0.015962 -0.072071
v -0.025324 0.015962 -0.072071
v -0.027015 0.015962 -0.071938
v -0.028664 0.015962 -0.071542
v -0.030231 0.015962 -0.070892
v -0.031678 0.015962 -0.070006
v -0.034069 0.015962 -0.067615
v -0.034955 0.015962 -0.066168
v -0.035604 0.015962 -0.064601
v -0.036000 0.015962 -0.062952
v -0.036133 0.015962 0.061261
v -0.036000 0.015962 0.062952
v -0.035604 0.015962 0.064601
v -0.034955 0.015962 0.066168
v -0.034069 0.015962 0.067615
v -0.032967 0.015962 0.068905
v -0.031678 0.015962 0.070006
v -0.030231 0.015962 0.070892
v -0.028664 0.015962 0.071542
v -0.027015 0.015962 0.071938
v -0.025324 0.015962 0.072071
v 0.025128 0.015962 0.072071
v 0.026819 0.015962 0.071938
v 0.028468 0.015962 0.071542
v 0.030035 0.015962 0.070892
v 0.031481 0.015962 0.070006
v 0.032771 0.015962 0.068905
v 0.033873 0.015962 0.067615
v 0.034759 0.015962 0.066168
v 0.035408 0.015962 0.064601
v 0.035804 0.015962 0.062952
v 0.035937 0.015962 0.061261
v 0.035408 0.014623 -0.064601
v 0.035804 0.014623 -0.062952
v 0.034759 0.014623 -0.066168
v 0.033873 0.014623 -0.067615
v 0.032771 0.014623 -0.068905
v 0.031481 0.014623 -0.070006
v 0.030035 0.014623 -0.070892
v 0.028468 0.014623 -0.071542
v 0.026819 0.014623 -0.071938
v 0.025128 0.014623 -0.072071
v -0.025324 0.014623 -0.072071
v -0.027015 0.014623 -0.071938
v -0.028664 0.014623 -0.071542
v -0.030231 0.014623 -0.070892
v -0.031678 0.014623 -0.070006
v -0.032967 0.014623 -0.068905
v -0.034069 0.014623 -0.067615
v -0.034955 0.014623 -0.066168
v -0.035604 0.014623 -0.064601
v -0.036000 0.014623 -0.062952
v -0.036133 0.014623 -0.061261
v -0.036133 0.014623 0.061261
v -0.036000 0.014623 0.062952
v -0.035604 0.014623 0.064601
v -0.034955 0.014623 0.066168
v -0.034069 0.014623 0.067615
v -0.032967 0.014623 0.068905
v -0.031678 0.014623 0.070006
v -0.030231 0.014623 0.070892
v -0.028664 0.014623 0.071542
v -0.027015 0.014623 0.071938
v -0.025324 0.014623 0.072071
v 0.025128 0.014623 0.072071
v 0.026819 0.014623 0.071938
v 0.028468 0.014623 0.071542
v 0.030035 0.014623 0.070892
v 0.031481 0.014623 0.070006
v 0.032771 0.014623 0.068905
v 0.033873 0.014623 0.067615
v 0.034759 0.014623 0.066168
v 0.035408 0.014623 0.064601
v 0.035804 0.014623 0.062952
v 0.035937 0.014623 0.061261
v 0.035937 0.014623 -0.061261
v 0.036432 0.003045 -0.072708
v -0.036628 0.003045 -0.072708
v 0.037385 0.003045 -0.071153
v -0.037581 0.003045 -0.071153
v 0.038083 0.003045 -0.069468
v -0.038279 0.003045 -0.069468
v 0.038509 0.003045 -0.067695
v -0.038705 0.003045 -0.067695
v 0.038652 0.003045 -0.065876
v -0.038848 0.003045 -0.065876
v 0.038652 0.003045 0.065876
v -0.038848 0.003045 0.065876
v 0.038509 0.003045 0.067695
v -0.038705 0.003045 0.067695
v 0.038083 0.003045 0.069468
v -0.038279 0.003045 0.069468
v 0.037385 0.003045 0.071153
v -0.037581 0.003045 0.071153
v 0.036432 0.003045 0.072708
v -0.036628 0.003045 0.072708
v 0.035247 0.003045 0.074095
v -0.035444 0.003045 0.074095
v 0.033860 0.003045 0.075280
v -0.034057 0.003045 0.075280
v 0.032305 0.003045 0.076233
v -0.032501 0.003045 0.076233
v 0.030620 0.003045 0.076931
v -0.030816 0.003045 0.076931
v 0.028846 0.003045 0.077357
v -0.029043 0.003045 0.077357
v 0.027028 0.003045 0.077500
v -0.027224 0.003045 0.077500
v 0.028468 0.015962 -0.071542
v 0.028468 0.015962 -0.071542
v 0.035937 0.015962 0.061261
v 0.035937 0.015962 0.061261
v 0.035937 0.015962 0.061261
v -0.027224 0.015962 0.077500
v 0.035247 0.003045 -0.074095
v 0.035804 0.015962 -0.062952
v 0.035804 0.015962 0.062952
v 0.035804 0.015962 0.062952
v 0.035804 0.015962 0.062952
v 0.035247 0.015962 -0.074095
v 0.033860 0.015962 -0.075280
v -0.030231 0.015962 -0.070892
v -0.030231 0.015962 -0.070892
v -0.030231 0.015962 -0.070892
v -0.030231 0.015962 0.070892
v -0.030231 0.015962 0.070892
v 0.030620 0.003045 -0.076931
v -0.032501 0.015962 0.076233
v -0.030816 0.003045 -0.076931
v -0.030816 0.015962 -0.076931
v -0.032501 0.003045 -0.076233
v -0.035444 0.015962 -0.074095
v 0.026819 0.015962 -0.071938
v -0.034057 0.015962 -0.075280
v 0.027028 0.015962 -0.077500
v -0.035444 0.003045 -0.074095
v -0.029043 0.003045 -0.077357
v -0.034057 0.003045 -0.075280
v 0.027028 0.003045 -0.077500
v -0.027015 0.015962 -0.071938
v -0.027015 0.015962 -0.071938
v 0.032305 0.015962 -0.076233
v 0.030035 0.015962 -0.070892
v 0.030035 0.015962 -0.070892
v 0.030035 0.015962 0.070892
v 0.030035 0.015962 0.070892
v -0.034069 0.015962 0.067615
v -0.034069 0.015962 0.067615
v -0.034069 0.015962 0.067615
v 0.033873 0.015962 -0.067615
v 0.031481 0.015962 -0.070006
v 0.027028 0.015962 0.077500
v -0.034955 0.015962 0.066169
v -0.034955 0.015962 -0.066168
v -0.034955 0.015962 0.066168
v -0.027224 0.015962 -0.077500
v -0.035444 0.015962 0.074095
v 0.033873 0.015962 0.067615
v 0.033873 0.015962 0.067615
v 0.034759 0.015962 -0.066168
v 0.034759 0.015962 0.066168
v 0.034759 0.015962 0.066168
v 0.035408 0.015962 -0.064601
v 0.028846 0.015962 -0.077357
v -0.027224 0.003045 -0.077500
v 0.025128 0.015962 0.072071
v 0.025128 0.015962 -0.072071
v 0.025128 0.015962 0.072071
v 0.033860 0.003045 -0.075280
v -0.029043 0.015962 -0.077357
v 0.030620 0.015962 0.076931
v 0.032771 0.015962 -0.068905
v 0.032771 0.015962 0.068905
v 0.032771 0.015962 0.068905
v 0.032771 0.015962 0.068905
v -0.028664 0.015962 0.071542
v -0.028664 0.015962 0.071542
v -0.028664 0.015962 0.071542
v 0.028846 0.015962 0.077357
v -0.025324 0.015962 -0.072071
v -0.025324 0.015962 -0.072071
v -0.025324 0.015962 0.072071
v -0.025324 0.015962 0.072071
v -0.034069 0.015962 -0.067615
v -0.035604 0.015962 -0.064601
v -0.035604 0.015962 -0.064601
v -0.034057 0.015962 0.075280
v -0.031678 0.015962 -0.070006
v 0.030620 0.015962 -0.076931
v -0.032501 0.015962 -0.076233
v 0.035408 0.015962 0.064601
v 0.035408 0.015962 0.064601
v 0.035247 0.015962 0.074095
v 0.032305 0.003045 -0.076233
v 0.033860 0.015962 0.075280
v -0.030231 0.015962 0.070892
v -0.029043 0.015962 0.077357
v -0.030816 0.015962 0.076931
v 0.028846 0.003045 -0.077357
v 0.032305 0.015962 0.076233
v 0.028468 0.015962 0.071542
v 0.028468 0.015962 0.071542
v 0.028468 0.015962 0.071542
v -0.028664 0.015962 -0.071542
v -0.036133 0.015962 0.061261
v -0.036133 0.015962 0.061261
v -0.036133 0.015962 0.061261
v -0.032967 0.015962 -0.068905
v -0.032967 0.015962 0.068905
v -0.032967 0.015962 0.068905
v -0.036000 0.015962 -0.062952
v -0.036000 0.015962 0.062952
v -0.036000 0.015962 0.062952
v -0.036133 0.015962 -0.061261
v -0.031678 0.015962 0.070006
v -0.031678 0.015962 0.070006
v -0.031678 0.015962 0.070006
v 0.026819 0.015962 0.071938
v 0.026819 0.015962 -0.071938
v 0.026819 0.015962 0.071938
v 0.026819 0.015962 0.071938
v -0.027015 0.015962 0.071938
v -0.027015 0.015962 -0.071938
v -0.027015 0.015962 0.071938
v -0.027015 0.015962 0.071938
v 0.030035 0.015962 0.070892
v 0.031481 0.015962 0.070006
v 0.031481 0.015962 0.070006
v 0.031481 0.015962 0.070006
v 0.035937 0.015962 -0.061261
v 0.028468 0.015962 -0.071542
v 0.028468 0.015962 -0.071542
v -0.028664 0.015962 -0.071542
v -0.031678 0.015962 -0.070006
v -0.036000 0.015962 -0.062952
v -0.035604 0.015962 0.064601
v -0.035604 0.015962 0.064601
v 0.015912 0.003250 -0.044843
v 0.015912 0.000666 -0.044843
v 0.027399 0.000666 -0.044843
v 0.027399 0.003250 -0.044843
v 0.015912 0.000666 -0.070676
v 0.015912 0.003250 -0.070676
v 0.027399 0.003250 -0.070676
v 0.027399 0.000666 -0.070676
v 0.033141 0.003249 -0.051301
v 0.033141 0.000666 -0.051301
v 0.033141 0.000666 -0.064219
v 0.033141 0.003250 -0.064219
v 0.010170 0.003250 -0.064219
v 0.010170 0.000666 -0.064219
v 0.010170 0.000666 -0.051301
v 0.010170 0.003249 -0.051301
v 0.010219 0.000666 -0.050458
v 0.010219 0.003250 -0.050458
v 0.010365 0.000666 -0.049629
v 0.010365 0.003250 -0.049629
v 0.010607 0.000666 -0.048830
v 0.010607 0.003250 -0.048830
v 0.010939 0.000666 -0.048072
v 0.010939 0.003250 -0.048072
v 0.011356 0.000666 -0.047370
v 0.011356 0.003250 -0.047370
v 0.011852 0.000666 -0.046734
v 0.011852 0.003250 -0.046734
v 0.012416 0.000666 -0.046178
v 0.012416 0.003250 -0.046178
v 0.013041 0.000666 -0.045708
v 0.013041 0.003250 -0.045708
v 0.013714 0.000666 -0.045335
v 0.013714 0.003250 -0.045335
v 0.014426 0.000666 -0.045063
v 0.014426 0.003250 -0.045063
v 0.015162 0.000666 -0.044898
v 0.015162 0.003250 -0.044898
v 0.028148 0.000666 -0.044898
v 0.028148 0.003250 -0.044898
v 0.028885 0.000666 -0.045063
v 0.028885 0.003250 -0.045063
v 0.029596 0.000666 -0.045335
v 0.029596 0.003250 -0.045335
v 0.030270 0.000666 -0.045708
v 0.030270 0.003250 -0.045708
v 0.030894 0.000666 -0.046178
v 0.030894 0.003250 -0.046178
v 0.031459 0.000666 -0.046734
v 0.031459 0.003250 -0.046734
v 0.031954 0.000666 -0.047370
v 0.031954 0.003250 -0.047370
v 0.032371 0.000666 -0.048072
v 0.032371 0.003250 -0.048072
v 0.032704 0.000666 -0.048830
v 0.032704 0.003250 -0.048830
v 0.032945 0.000666 -0.049629
v 0.032945 0.003250 -0.049629
v 0.033092 0.000666 -0.050458
v 0.033092 0.003250 -0.050458
v 0.010219 0.003250 -0.065062
v 0.010219 0.000666 -0.065062
v 0.010365 0.003249 -0.065890
v 0.010365 0.000666 -0.065890
v 0.010607 0.003250 -0.066690
v 0.010607 0.000666 -0.066690
v 0.010939 0.003250 -0.067448
v 0.010939 0.000666 -0.067448
v 0.011356 0.003250 -0.068150
v 0.011356 0.000666 -0.068150
v 0.011852 0.003250 -0.068785
v 0.011852 0.000666 -0.068785
v 0.011852 0.003250 -0.068785
v 0.012416 0.003250 -0.069342
v 0.012416 0.000666 -0.069342
v 0.011852 0.000666 -0.068785
v 0.013041 0.003250 -0.069811
v 0.013041 0.000666 -0.069811
v 0.013714 0.003250 -0.070185
v 0.013714 0.000666 -0.070185
v 0.014426 0.003250 -0.070456
v 0.014426 0.000666 -0.070456
v 0.015162 0.003249 -0.070621
v 0.015162 0.000666 -0.070621
v 0.028148 0.003249 -0.070621
v 0.028148 0.000666 -0.070621
v 0.028885 0.003250 -0.070456
v 0.028885 0.000666 -0.070456
v 0.029596 0.003250 -0.070185
v 0.029596 0.000666 -0.070185
v 0.030270 0.003250 -0.069811
v 0.030270 0.000666 -0.069811
v 0.030894 0.003250 -0.069342
v 0.030894 0.000666 -0.069342
v 0.031459 0.003250 -0.068785
v 0.031459 0.000666 -0.068785
v 0.031459 0.003250 -0.068785
v 0.031954 0.003250 -0.068150
v 0.031954 0.000666 -0.068150
v 0.031459 0.000666 -0.068785
v 0.032371 0.003250 -0.067448
v 0.032371 0.000666 -0.067448
v 0.032704 0.003250 -0.066690
v 0.032704 0.000666 -0.066690
v 0.032945 0.003249 -0.065890
v 0.032945 0.000666 -0.065890
v 0.033092 0.003250 -0.065062
v 0.033092 0.000666 -0.065062
v 0.033092 0.003250 -0.065062
v 0.032945 0.003249 -0.065890
v 0.032704 0.003250 -0.066690
v 0.032371 0.003250 -0.067448
v 0.031954 0.003250 -0.068150
v 0.031459 0.003250 -0.068785
v 0.030894 0.003250 -0.069342
v 0.030270 0.003250 -0.069811
v 0.029596 0.003250 -0.070185
v 0.028885 0.003250 -0.070456
v 0.028148 0.003249 -0.070621
v 0.027399 0.003250 -0.070676
v 0.015912 0.003250 -0.070676
v 0.015162 0.003249 -0.070621
v 0.014426 0.003250 -0.070456
v 0.013714 0.003250 -0.070185
v 0.013041 0.003250 -0.069811
v 0.012416 0.003250 -0.069342
v 0.011852 0.003250 -0.068785
v 0.011356 0.003250 -0.068150
v 0.010939 0.003250 -0.067448
v 0.010607 0.003250 -0.066690
v 0.010365 0.003249 -0.065890
v 0.010219 0.003250 -0.065062
v 0.010170 0.003250 -0.064219
v 0.010170 0.003249 -0.051301
v 0.010219 0.003250 -0.050458
v 0.010365 0.003250 -0.049629
v 0.010607 0.003250 -0.048830
v 0.010939 0.003250 -0.048072
v 0.011356 0.003250 -0.047370
v 0.011852 0.003250 -0.046734
v 0.012416 0.003250 -0.046178
v 0.013041 0.003250 -0.045708
v 0.013714 0.003250 -0.045335
v 0.014426 0.003250 -0.045063
v 0.015162 0.003250 -0.044898
v 0.015912 0.003250 -0.044843
v 0.027399 0.003250 -0.044843
v 0.028148 0.003250 -0.044898
v 0.028885 0.003250 -0.045063
v 0.029596 0.003250 -0.045335
v 0.030270 0.003250 -0.045708
v 0.030894 0.003250 -0.046178
v 0.031459 0.003250 -0.046734
v 0.031954 0.003250 -0.047370
v 0.032371 0.003250 -0.048072
v 0.032704 0.003250 -0.048830
v 0.032945 0.003250 -0.049629
v 0.033092 0.003250 -0.050458
v 0.033141 0.003249 -0.051301
v 0.033141 0.003250 -0.064219
v 0.033141 0.000666 -0.064219
v 0.033141 0.000666 -0.051301
v 0.033092 0.000666 -0.050458
v 0.032945 0.000666 -0.049629
v 0.032704 0.000666 -0.048830
v 0.032371 0.000666 -0.048072
v 0.031954 0.000666 -0.047370
v 0.031459 0.000666 -0.046734
v 0.030894 0.000666 -0.046178
v 0.030270 0.000666 -0.045708
v 0.029596 0.000666 -0.045335
v 0.028885 0.000666 -0.045063
v 0.028148 0.000666 -0.044898
v 0.027399 0.000666 -0.044843
v 0.015912 0.000666 -0.044843
v 0.015162 0.000666 -0.044898
v 0.014426 0.000666 -0.045063
v 0.013714 0.000666 -0.045335
v 0.013041 0.000666 -0.045708
v 0.012416 0.000666 -0.046178
v 0.011852 0.000666 -0.046734
v 0.011356 0.000666 -0.047370
v 0.010939 0.000666 -0.048072
v 0.010607 0.000666 -0.048830
v 0.010365 0.000666 -0.049629
v 0.010219 0.000666 -0.050458
v 0.010170 0.000666 -0.051301
v 0.010170 0.000666 -0.064219
v 0.010219 0.000666 -0.065062
v 0.010365 0.000666 -0.065890
v 0.010607 0.000666 -0.066690
v 0.010939 0.000666 -0.067448
v 0.011356 0.000666 -0.068150
v 0.011852 0.000666 -0.068785
v 0.012416 0.000666 -0.069342
v 0.013041 0.000666 -0.069811
v 0.013714 0.000666 -0.070185
v 0.014426 0.000666 -0.070456
v 0.015162 0.000666 -0.070621
v 0.015912 0.000666 -0.070676
v 0.027399 0.000666 -0.070676
v 0.028148 0.000666 -0.070621
v 0.028885 0.000666 -0.070456
v 0.029596 0.000666 -0.070185
v 0.030270 0.000666 -0.069811
v 0.030894 0.000666 -0.069342
v 0.031459 0.000666 -0.068785
v 0.031954 0.000666 -0.068150
v 0.032371 0.000666 -0.067448
v 0.032704 0.000666 -0.066690
v 0.032945 0.000666 -0.065890
v 0.033092 0.000666 -0.065062
vn -0.5774 -0.0000 0.8165
vn -0.5774 -0.0000 0.8165
vn -0.5774 -0.0000 0.8165
vn -0.5774 -0.0000 0.8165
vn -0.5774 0.0000 0.8165
vn -0.5774 0.0000 0.8165
vn -0.5774 0.0000 0.8165
vn -0.5774 0.0000 0.8165
vn 0.0003 -0.0011 1.0000
vn 0.0003 -0.0011 1.0000
vn 0.5774 0.0000 -0.8165
vn 0.5774 0.0000 -0.8165
vn 0.5774 0.0000 -0.8165
vn 0.5774 0.0000 -0.8165
vn 0.0003 -0.0011 -1.0000
vn 0.0003 -0.0011 -1.0000
vn 0.0516 -0.1689 -0.9843
vn 0.0377 -0.1235 -0.9916
vn 0.0894 -0.2924 -0.9521
vn 0.0774 -0.2532 -0.9643
vn 0.1221 -0.3996 -0.9085
vn 0.1117 -0.3654 -0.9241
vn 0.1509 -0.4936 -0.8565
vn 0.1417 -0.4634 -0.8747
vn 0.1765 -0.5772 -0.7973
vn 0.1682 -0.5503 -0.8178
vn 0.1995 -0.6528 -0.7308
vn 0.1921 -0.6284 -0.7538
vn 0.2206 -0.7217 -0.6562
vn 0.2138 -0.6993 -0.6821
vn 0.2399 -0.7847 -0.5716
vn 0.2336 -0.7643 -0.6011
vn -0.5774 -0.0000 0.8165
vn 0.2517 -0.8234 -0.5086
vn 0.2845 -0.9307 -0.2298
vn -0.5774 -0.0000 0.8165
vn 0.2915 -0.9537 -0.0745
vn 0.2899 -0.9483 -0.1291
vn 0.2907 -0.9510 0.1053
vn 0.2921 -0.9554 0.0426
vn 0.2784 -0.9107 0.3052
vn 0.2840 -0.9291 0.2368
vn 0.2513 -0.8221 0.5110
vn 0.2621 -0.8574 0.4429
vn 0.2090 -0.6836 0.6993
vn 0.2246 -0.7349 0.6399
vn 0.1555 -0.5087 0.8468
vn 0.1742 -0.5699 0.8031
vn 0.0978 -0.3201 0.9423
vn 0.1171 -0.3832 0.9162
vn 0.0422 -0.1381 0.9895
vn 0.0603 -0.1972 0.9785
vn 0.5774 0.0000 -0.8165
vn -0.5774 0.0000 0.8165
vn 0.5774 0.0000 -0.8165
vn 0.5774 0.0000 -0.8165
vn 0.5774 0.0000 -0.8165
vn 0.5774 0.0000 -0.8165
vn 0.5774 0.0000 -0.8165
vn 0.5774 0.0000 -0.8165
vn -0.5774 0.0000 0.8165
vn 0.5774 0.0000 -0.8165
vn -0.5774 0.0000 0.8165
vn -0.5774 0.0000 0.8165
vn -0.5774 0.0000 0.8165
vn 0.5774 0.0000 -0.8165
vn 0.5774 0.0000 -0.8165
vn 0.5774 0.0000 -0.8165
vn 0.5774 0.0000 -0.8165
vn 0.5774 0.0000 -0.8165
vn -0.5774 0.0000 0.8165
vn -0.5774 0.0000 0.8165
vn -0.5774 0.0000 0.8165
vn -0.5774 0.0000 0.8165
vn 0.5774 0.0000 -0.8165
vn 0.5774 0.0000 -0.8165
vn 0.5774 0.0000 -0.8165
vn 0.5774 0.0000 -0.8165
vn -0.5774 0.0000 0.8165
vn -0.5774 0.0000 0.8165
vn 0.5774 0.0000 -0.8165
vn -0.5774 0.0000 0.8165
vn 0.5774 0.0000 -0.8165
vn 0.5774 0.0000 -0.8165
vn 0.5774 0.0000 -0.8165
vn -0.5774 0.0000 0.8165
vn 0.5774 0.0000 -0.8165
vn 0.5774 0.0000 -0.8165
vn 0.5774 0.0000 -0.8165
vn 0.5774 0.0000 -0.8165
vn -0.5774 0.0000 0.8165
vn 0.5774 0.0000 -0.8165
vn 0.5774 0.0000 -0.8165
vn 0.5774 0.0000 -0.8165
vn 0.5774 0.0000 -0.8165
vn 0.5774 0.0000 -0.8165
vn 0.5774 0.0000 -0.8165
vn 0.5774 0.0000 -0.8165
vn 0.5774 0.0000 -0.8165
vn 0.5774 0.0000 -0.8165
vn 0.5774 0.0000 -0.8165
vn 0.5774 0.0000 -0.8165
vn 0.5774 0.0000 -0.8165
vn 0.5774 0.0000 -0.8165
vn 0.5774 0.0000 -0.8165
vn 0.5774 0.0000 -0.8165
vn 0.5774 0.0000 -0.8165
vn 0.5774 0.0000 -0.8165
vn 0.5774 0.0000 -0.8165
vn 0.5774 0.0000 -0.8165
vn 0.5774 0.0000 -0.8165
vn 0.5774 0.0000 -0.8165
vn 0.5774 0.0000 -0.8165
vn 0.5774 0.0000 -0.8165
vn 0.5774 0.0000 -0.8165
vn 0.5774 0.0000 -0.8165
vn 0.5774 0.0000 -0.8165
vn 0.5774 0.0000 -0.8165
vn 0.5774 0.0000 -0.8165
vn 0.5774 0.0000 -0.8165
vn 0.5774 0.0000 -0.8165
vn 0.5774 0.0000 -0.8165
vn 0.5774 0.0000 -0.8165
vn 0.5774 0.0000 -0.8165
vn 0.5774 0.0000 -0.8165
vn 0.5774 0.0000 -0.8165
vn 0.5774 0.0000 -0.8165
vn 0.5774 0.0000 -0.8165
vn 0.5774 0.0000 -0.8165
vn 0.5774 0.0000 -0.8165
vn 0.5774 0.0000 -0.8165
vn 0.5774 0.0000 -0.8165
vn 0.5774 0.0000 -0.8165
vn 0.5774 0.0000 -0.8165
vn 0.5774 0.0000 -0.8165
vn 0.5774 0.0000 -0.8165
vn 0.5774 0.0000 -0.8165
vn 0.5774 0.0000 -0.8165
vn 0.5774 0.0000 -0.8165
vn 0.5774 0.0000 -0.8165
vn 0.5774 0.0000 -0.8165
vn 0.5774 0.0000 -0.8165
vn 0.5774 0.0000 -0.8165
vn 0.5774 0.0000 -0.8165
vn 0.5774 0.0000 -0.8165
vn 0.5774 0.0000 -0.8165
vn 0.5774 0.0000 -0.8165
vn 0.5774 0.0000 -0.8165
vn 0.5774 0.0000 -0.8165
vn 0.5774 0.0000 -0.8165
vn 0.5774 0.0000 -0.8165
vn 0.5774 0.0000 -0.8165
vn 0.5774 0.0000 -0.8165
vn 0.5774 0.0000 -0.8165
vn 0.5774 0.0000 -0.8165
vn 0.5774 0.0000 -0.8165
vn 0.5774 0.0000 -0.8165
vn 0.5774 -0.0000 -0.8165
vn 0.5774 0.0000 -0.8165
vn 0.5774 0.0000 -0.8165
vn 0.1996 -0.6528 -0.7308
vn 0.5774 0.0000 -0.8165
vn -0.5774 -0.0000 0.8165
vn 0.5774 -0.0000 -0.8165
vn 0.5774 0.0000 -0.8165
vn 0.5774 0.0000 -0.8165
vn 0.5774 -0.0000 -0.8165
vn -0.5774 -0.0000 0.8165
vn 0.5774 0.0000 -0.8165
vn 0.2784 -0.9107 0.3051
vn 0.5774 0.0000 -0.8165
vn 0.5774 0.0000 -0.8165
vn 0.5774 0.0000 -0.8165
vn 0.5774 -0.0000 -0.8165
vn -0.0006 0.0021 1.0000
vn -0.5774 -0.0000 0.8165
vn 0.5774 0.0000 -0.8165
vn 0.5774 0.0000 -0.8165
vn -0.5774 -0.0000 0.8165
vn -0.5774 -0.0000 0.8165
vn 0.5774 0.0000 -0.8165
vn -0.5774 -0.0000 0.8165
vn 0.5774 0.0000 -0.8165
vn -0.5774 -0.0000 0.8165
vn 0.5774 0.0000 -0.8165
vn 0.5774 0.0000 -0.8165
vn -0.5774 -0.0000 0.8165
vn 0.5774 0.0000 -0.8165
vn -0.5774 -0.0000 0.8165
vn 0.5774 0.0000 -0.8165
vn -0.5774 -0.0000 0.8165
vn -0.5774 -0.0000 0.8165
vn 0.5774 0.0000 -0.8165
vn 0.5774 0.0000 -0.8165
vn -0.5774 -0.0000 0.8165
vn -0.5774 -0.0000 0.8165
vn 0.5774 -0.0000 -0.8165
vn 0.5774 -0.0000 -0.8165
vn 0.1117 -0.3654 -0.9241
vn 0.1417 -0.4634 -0.8747
vn 0.1682 -0.5503 -0.8179
vn 0.5774 -0.0000 -0.8165
vn 0.5774 -0.0000 -0.8165
vn 0.2336 -0.7643 -0.6011
vn 0.5774 -0.0000 -0.8165
vn 0.5774 -0.0000 -0.8165
vn 0.5774 -0.0000 -0.8165
vn 0.5774 -0.0000 -0.8165
vn 0.5774 -0.0000 -0.8165
vn 0.2921 -0.9554 0.0426
vn 0.5774 -0.0000 -0.8165
vn 0.5774 -0.0000 -0.8165
vn 0.2246 -0.7349 0.6399
vn 0.1742 -0.5699 0.8031
vn 0.1171 -0.3832 0.9162
vn 0.5774 -0.0000 -0.8165
vn 0.5774 -0.0000 -0.8165
vn -0.0002 0.0005 1.0000
vn -0.0377 0.1235 0.9916
vn -0.0774 0.2532 0.9643
vn -0.1117 0.3654 0.9241
vn -0.1417 0.4634 0.8747
vn -0.1682 0.5503 0.8178
vn -0.1921 0.6284 0.7538
vn -0.2138 0.6993 0.6821
vn -0.2336 0.7643 0.6011
vn -0.2517 0.8234 0.5086
vn -0.2697 0.8823 0.3858
vn -0.2703 0.8842 0.3811
vn -0.2810 0.9191 0.2764
vn -0.2899 0.9483 0.1291
vn -0.2921 0.9554 -0.0426
vn -0.2840 0.9291 -0.2369
vn -0.2621 0.8574 -0.4429
vn -0.2246 0.7349 -0.6399
vn -0.1742 0.5698 -0.8031
vn -0.1171 0.3832 -0.9162
vn -0.0603 0.1972 -0.9785
vn -0.0006 0.0021 -1.0000
vn 0.5774 -0.0000 -0.8165
vn -0.5774 -0.0000 0.8165
vn -0.5774 -0.0000 0.8165
vn -0.5774 -0.0000 0.8165
vn -0.5774 -0.0000 0.8165
vn -0.5774 -0.0000 0.8165
vn -0.5774 -0.0000 0.8165
vn -0.5774 -0.0000 0.8165
vn -0.5774 -0.0000 0.8165
vn -0.5774 -0.0000 0.8165
vn -0.5774 -0.0000 0.8165
vn -0.5774 -0.0000 0.8165
vn -0.5774 -0.0000 0.8165
vn -0.5774 -0.0000 0.8165
vn -0.5774 -0.0000 0.8165
vn -0.5774 -0.0000 0.8165
vn -0.5774 -0.0000 0.8165
vn -0.5774 -0.0000 0.8165
vn -0.5774 -0.0000 0.8165
vn -0.5774 -0.0000 0.8165
vn -0.5774 -0.0000 0.8165
vn -0.5774 -0.0000 0.8165
vn -0.5774 -0.0000 0.8165
vn -0.5774 -0.0000 0.8165
vn -0.5774 -0.0000 0.8165
vn -0.5774 -0.0000 0.8165
vn -0.5774 -0.0000 0.8165
vn -0.5774 -0.0000 0.8165
vn -0.5774 -0.0000 0.8165
vn -0.5774 -0.0000 0.8165
vn -0.5774 -0.0000 0.8165
vn -0.5774 -0.0000 0.8165
vn -0.5774 -0.0000 0.8165
vn -0.5774 -0.0000 0.8165
vn -0.5774 -0.0000 0.8165
vn -0.5774 -0.0000 0.8165
vn -0.0000 0.0000 -1.0000
vn -0.0002 0.0005 -1.0000
vn 0.5774 0.0000 -0.8165
vn -0.5774 -0.0000 0.8165
vn 0.5774 0.0000 -0.8165
vn -0.5774 -0.0000 0.8165
vn 0.5774 0.0000 -0.8165
vn -0.0422 0.1381 -0.9895
vn 0.5774 0.0000 -0.8165
vn 0.5774 0.0000 -0.8165
vn -0.5774 -0.0000 0.8165
vn -0.5774 -0.0000 0.8165
vn 0.5774 -0.0000 -0.8165
vn 0.5774 0.0000 -0.8165
vn -0.2206 0.7217 0.6562
vn -0.5774 -0.0000 0.8165
vn 0.5774 0.0000 -0.8165
vn -0.5774 -0.0000 0.8165
vn 0.5774 0.0000 -0.8165
vn -0.5774 -0.0000 0.8165
vn 0.5774 0.0000 -0.8165
vn -0.5774 -0.0000 0.8165
vn 0.5774 0.0000 -0.8165
vn 0.5774 0.0000 -0.8165
vn -0.5774 -0.0000 0.8165
vn -0.5774 -0.0000 0.8165
vn -0.5774 -0.0000 0.8165
vn -0.5774 -0.0000 0.8165
vn -0.5774 -0.0000 0.8165
vn -0.5774 -0.0000 0.8165
vn 0.5774 0.0000 -0.8165
vn -0.5774 -0.0000 0.8165
vn -0.5774 -0.0000 0.8165
vn 0.5774 0.0000 -0.8165
vn -0.2907 0.9510 -0.1053
vn -0.5774 -0.0000 0.8165
vn 0.5774 0.0000 -0.8165
vn -0.1509 0.4936 0.8565
vn 0.1509 -0.4936 -0.8565
vn -0.5774 -0.0000 0.8165
vn 0.5774 0.0000 -0.8165
vn -0.5774 -0.0000 0.8165
vn 0.1555 -0.5087 0.8468
vn -0.1221 0.3995 0.9085
vn 0.5774 0.0000 -0.8165
vn 0.5774 0.0000 -0.8165
vn -0.5774 -0.0000 0.8165
vn -0.2090 0.6836 -0.6993
vn 0.1221 -0.3996 -0.9085
vn -0.5774 -0.0000 0.8165
vn -0.1555 0.5087 -0.8468
vn 0.5774 -0.0000 -0.8165
vn 0.5774 0.0000 -0.8165
vn -0.5774 -0.0000 0.8165
vn -0.5774 -0.0000 0.8165
vn 0.5774 -0.0000 -0.8165
vn -0.2706 0.8852 0.3783
vn -0.5774 -0.0000 0.8165
vn 0.5774 0.0000 -0.8165
vn 0.5774 0.0000 -0.8165
vn 0.1765 -0.5772 -0.7973
vn -0.5774 -0.0000 0.8165
vn 0.5774 0.0000 -0.8165
vn -0.2513 0.8221 -0.5109
vn -0.5774 -0.0000 0.8165
vn -0.5774 -0.0000 0.8165
vn -0.2399 0.7847 0.5716
vn 0.5774 0.0000 -0.8165
vn -0.5774 -0.0000 0.8165
vn 0.5774 -0.0000 -0.8165
vn -0.5774 -0.0000 0.8165
vn -0.2700 0.8834 0.3830
vn 0.2090 -0.6836 0.6993
vn 0.5774 0.0000 -0.8165
vn 0.5774 -0.0000 -0.8165
vn 0.5774 0.0000 -0.8165
vn -0.5774 -0.0000 0.8165
vn 0.5774 0.0000 -0.8165
vn 0.5774 0.0000 -0.8165
vn -0.5774 -0.0000 0.8165
vn -0.0978 0.3201 -0.9423
vn 0.5774 0.0000 -0.8165
vn -0.5774 -0.0000 0.8165
vn 0.5774 0.0000 -0.8165
vn -0.5774 -0.0000 0.8165
vn 0.5774 0.0000 -0.8165
vn 0.5774 0.0000 -0.8165
vn -0.5774 -0.0000 0.8165
vn 0.5774 0.0000 -0.8165
vn -0.5774 -0.0000 0.8165
vn -0.5774 -0.0000 0.8165
vn -0.2915 0.9537 0.0745
vn -0.5774 -0.0000 0.8165
vn 0.0000 -0.0000 1.0000
vn -0.5774 -0.0000 0.8165
vn -0.5774 -0.0000 0.8165
vn -0.5774 -0.0000 0.8165
vn -0.5774 -0.0000 0.8165
vn -0.1765 0.5773 0.7973
vn 0.5774 0.0000 -0.8165
vn -0.5774 -0.0000 0.8165
vn -0.0516 0.1689 0.9843
vn 0.5774 -0.0000 -0.8165
vn -0.5774 -0.0000 0.8165
vn -0.5774 -0.0000 0.8165
vn -0.1995 0.6528 0.7308
vn -0.5774 -0.0000 0.8165
vn -0.5774 -0.0000 0.8165
vn 0.5774 0.0000 -0.8165
vn -0.2845 0.9307 0.2298
vn -0.5774 -0.0000 0.8165
vn 0.5774 0.0000 -0.8165
vn 0.5774 0.0000 -0.8165
vn -0.2573 0.8417 0.4746
vn -0.5774 -0.0000 0.8165
vn -0.5774 -0.0000 0.8165
vn -0.5774 -0.0000 0.8165
vn -0.2784 0.9107 -0.3052
vn 0.5774 -0.0000 -0.8165
vn 0.5774 0.0000 -0.8165
vn 0.5774 -0.0000 -0.8165
vn -0.5774 -0.0000 0.8165
vn 0.5774 0.0000 -0.8165
vn 0.5774 0.0000 -0.8165
vn -0.5774 -0.0000 0.8165
vn -0.0894 0.2924 0.9521
vn -0.6224 -0.0000 0.7827
vn -0.6224 -0.0000 0.7827
vn -0.6224 -0.0000 0.7827
vn -0.6224 -0.0000 0.7827
vn 0.6224 0.0000 -0.7827
vn 0.6224 0.0000 -0.7827
vn 0.6224 0.0000 -0.7827
vn 0.6224 0.0000 -0.7827
vn -0.6224 -0.0000 0.7827
vn -0.6224 -0.0000 0.7827
vn -0.0014 0.0040 1.0000
vn -0.0014 0.0040 1.0000
vn 0.6224 0.0000 -0.7827
vn 0.6224 0.0000 -0.7827
vn 0.0014 -0.0040 -1.0000
vn 0.0014 -0.0040 -1.0000
vn -0.6224 -0.0000 0.7827
vn -0.6224 -0.0000 0.7827
vn -0.6224 -0.0000 0.7827
vn -0.6224 -0.0000 0.7827
vn 0.6224 -0.0000 -0.7827
vn 0.6224 -0.0000 -0.7827
vn 0.6224 -0.0000 -0.7827
vn 0.6224 -0.0000 -0.7827
vn 0.6224 -0.0000 -0.7827
vn 0.6224 -0.0000 -0.7827
vn 0.1931 -0.5617 -0.8045
vn 0.1931 -0.5617 -0.8045
vn 0.6224 -0.0000 -0.7827
vn 0.6224 -0.0000 -0.7827
vn 0.6224 -0.0000 -0.7827
vn 0.6224 -0.0000 -0.7827
vn 0.6224 -0.0000 -0.7827
vn 0.6224 -0.0000 -0.7827
vn 0.6224 -0.0000 -0.7827
vn 0.6224 -0.0000 -0.7827
vn -0.6224 -0.0000 0.7827
vn -0.6224 -0.0000 0.7827
vn -0.6224 -0.0000 0.7827
vn -0.6224 -0.0000 0.7827
vn 0.6224 -0.0000 -0.7827
vn 0.6224 -0.0000 -0.7827
vn 0.6224 -0.0000 -0.7827
vn 0.6224 -0.0000 -0.7827
vn 0.6224 -0.0000 -0.7827
vn 0.6224 -0.0000 -0.7827
vn 0.6224 -0.0000 -0.7827
vn 0.6224 -0.0000 -0.7827
vn 0.2864 -0.8332 0.4730
vn 0.2864 -0.8332 0.4730
vn -0.6224 -0.0000 0.7827
vn -0.6224 -0.0000 0.7827
vn -0.6224 -0.0000 0.7827
vn -0.6224 -0.0000 0.7827
vn -0.6224 -0.0000 0.7827
vn -0.6224 -0.0000 0.7827
vn -0.6224 -0.0000 0.7827
vn -0.6224 -0.0000 0.7827
vn -0.6224 -0.0000 0.7827
vn -0.6224 -0.0000 0.7827
vn 0.6224 0.0000 -0.7827
vn 0.6224 0.0000 -0.7827
vn 0.6224 0.0000 -0.7827
vn 0.6224 0.0000 -0.7827
vn 0.6224 0.0000 -0.7827
vn 0.6224 0.0000 -0.7827
vn 0.6224 0.0000 -0.7827
vn 0.6224 0.0000 -0.7827
vn -0.6224 0.0000 0.7827
vn -0.6224 0.0000 0.7827
vn -0.6224 0.0000 0.7827
vn -0.6224 0.0000 0.7827
vn -0.6224 0.0000 0.7827
vn -0.6224 0.0000 0.7827
vn -0.6224 0.0000 0.7827
vn -0.6224 0.0000 0.7827
vn -0.6224 0.0000 0.7827
vn -0.6224 0.0000 0.7827
vn -0.6224 0.0000 0.7827
vn -0.6224 0.0000 0.7827
vn -0.6224 0.0000 0.7827
vn -0.6224 0.0000 0.7827
vn 0.6224 0.0000 -0.7827
vn 0.6224 0.0000 -0.7827
vn 0.6224 0.0000 -0.7827
vn 0.6224 0.0000 -0.7827
vn -0.6224 0.0000 0.7827
vn -0.6224 0.0000 0.7827
vn -0.6224 0.0000 0.7827
vn -0.6224 0.0000 0.7827
vn -0.6224 0.0000 0.7827
vn -0.6224 0.0000 0.7827
vn -0.6224 0.0000 0.7827
vn -0.6224 0.0000 0.7827
vn -0.6224 0.0000 0.7827
vn -0.6224 0.0000 0.7827
vn -0.6224 0.0000 0.7827
vn -0.6224 0.0000 0.7827
vn -0.6224 0.0000 0.7827
vn -0.6224 0.0000 0.7827
vn 0.6224 0.0000 -0.7827
vn 0.6224 0.0000 -0.7827
vn 0.6224 0.0000 -0.7827
vn 0.6224 0.0000 -0.7827
vn 0.6224 0.0000 -0.7827
vn 0.6224 0.0000 -0.7827
vn 0.6224 0.0000 -0.7827
vn 0.6224 0.0000 -0.7827
vn 0.6224 0.0000 -0.7827
vn 0.6224 0.0000 -0.7827
vn 0.6224 0.0000 -0.7827
vn 0.6224 0.0000 -0.7827
vn 0.6224 0.0000 -0.7827
vn 0.6224 0.0000 -0.7827
vn 0.6224 0.0000 -0.7827
vn 0.6224 0.0000 -0.7827
vn 0.6224 0.0000 -0.7827
vn 0.6224 0.0000 -0.7827
vn 0.6224 0.0000 -0.7827
vn 0.6224 0.0000 -0.7827
vn 0.6224 0.0000 -0.7827
vn 0.6224 0.0000 -0.7827
vn 0.6224 0.0000 -0.7827
vn 0.6224 0.0000 -0.7827
vn 0.6224 0.0000 -0.7827
vn 0.6224 0.0000 -0.7827
vn 0.6224 0.0000 -0.7827
vn 0.6224 0.0000 -0.7827
vn 0.6224 0.0000 -0.7827
vn 0.6224 0.0000 -0.7827
vn 0.6224 0.0000 -0.7827
vn 0.6224 0.0000 -0.7827
vn 0.6224 0.0000 -0.7827
vn 0.6224 0.0000 -0.7827
vn 0.6224 0.0000 -0.7827
vn 0.6224 0.0000 -0.7827
vn 0.6224 0.0000 -0.7827
vn 0.6224 0.0000 -0.7827
vn 0.6224 0.0000 -0.7827
vn 0.6224 0.0000 -0.7827
vn 0.6224 0.0000 -0.7827
vn 0.6224 0.0000 -0.7827
vn 0.6224 0.0000 -0.7827
vn 0.6224 0.0000 -0.7827
vn 0.6224 0.0000 -0.7827
vn 0.6224 0.0000 -0.7827
vn 0.6224 0.0000 -0.7827
vn 0.6224 0.0000 -0.7827
vn 0.6224 0.0000 -0.7827
vn 0.6224 0.0000 -0.7827
vn 0.6224 0.0000 -0.7827
vn 0.6224 0.0000 -0.7827
vn 0.6224 0.0000 -0.7827
vn 0.6224 0.0000 -0.7827
vn 0.6224 0.0000 -0.7827
vn 0.6224 0.0000 -0.7827
vn 0.6224 0.0000 -0.7827
vn 0.6224 0.0000 -0.7827
vn 0.6224 0.0000 -0.7827
vn 0.6224 0.0000 -0.7827
vn -0.6224 -0.0000 0.7827
vn -0.6224 -0.0000 0.7827
vn -0.6224 -0.0000 0.7827
vn -0.6224 -0.0000 0.7827
vn -0.6224 -0.0000 0.7827
vn -0.6224 -0.0000 0.7827
vn -0.6224 -0.0000 0.7827
vn -0.6224 -0.0000 0.7827
vn -0.6224 -0.0000 0.7827
vn -0.6224 -0.0000 0.7827
vn -0.6224 -0.0000 0.7827
vn -0.6224 -0.0000 0.7827
vn -0.6224 -0.0000 0.7827
vn -0.6224 -0.0000 0.7827
vn -0.6224 -0.0000 0.7827
vn -0.6224 -0.0000 0.7827
vn -0.6224 -0.0000 0.7827
vn -0.6224 -0.0000 0.7827
vn -0.6224 -0.0000 0.7827
vn -0.6224 -0.0000 0.7827
vn -0.6224 -0.0000 0.7827
vn -0.6224 -0.0000 0.7827
vn -0.6224 -0.0000 0.7827
vn -0.6224 -0.0000 0.7827
vn -0.6224 -0.0000 0.7827
vn -0.6224 -0.0000 0.7827
vn -0.6224 -0.0000 0.7827
vn -0.6224 -0.0000 0.7827
vn -0.6224 -0.0000 0.7827
vn -0.6224 -0.0000 0.7827
vn -0.6224 -0.0000 0.7827
vn -0.6224 -0.0000 0.7827
vn -0.6224 -0.0000 0.7827
vn -0.6224 -0.0000 0.7827
vn -0.6224 -0.0000 0.7827
vn -0.6224 -0.0000 0.7827
vn -0.6224 -0.0000 0.7827
vn -0.6224 -0.0000 0.7827
vn -0.6224 -0.0000 0.7827
vn -0.6224 -0.0000 0.7827
vn -0.6224 -0.0000 0.7827
vn -0.6224 -0.0000 0.7827
vn -0.6224 -0.0000 0.7827
vn -0.6224 -0.0000 0.7827
vn -0.6224 -0.0000 0.7827
vn -0.6224 -0.0000 0.7827
vn -0.6224 -0.0000 0.7827
vn -0.6224 -0.0000 0.7827
vn -0.6224 -0.0000 0.7827
vn -0.6224 -0.0000 0.7827
vn -0.6224 -0.0000 0.7827
vn -0.6224 -0.0000 0.7827
usemtl 手机_外壳
f 1//1 2//2 3//3
f 1//1 3//3 4//4
f 5//5 6//6 7//7
f 5//5 7//7 8//8
f 9//9 10//10 11//11
f 9//9 11//11 12//12
f 13//13 14//14 15//15
f 13//13 15//15 16//16
f 15//15 17//17 18//18
f 15//15 18//18 16//16
f 17//17 19//19 20//20
f 17//17 20//20 18//18
f 19//19 21//21 22//22
f 19//19 22//22 20//20
f 21//21 23//23 24//24
f 21//21 24//24 22//22
f 23//23 25//25 26//26
f 23//23 26//26 24//24
f 25//25 27//27 28//28
f 25//25 28//28 26//26
f 27//27 29//29 30//30
f 27//27 30//30 28//28
f 29//29 31//31 32//32
f 29//29 32//32 30//30
f 31//31 33//33 34//34
f 31//31 34//34 32//32
f 33//33 2//2 1//1
f 33//33 1//1 34//34
f 3//3 35//35 36//36
f 3//3 36//36 4//4
f 35//35 37//37 38//38
f 35//35 38//38 36//36
f 37//37 39//39 40//40
f 37//37 40//40 38//38
f 39//39 41//41 42//42
f 39//39 42//42 40//40
f 41//41 43//43 44//44
f 41//41 44//44 42//42
f 43//43 45//45 46//46
f 43//43 46//46 44//44
f 45//45 47//47 48//48
f 45//45 48//48 46//46
f 47//47 49//49 50//50
f 47//47 50//50 48//48
f 49//49 51//51 52//52
f 49//49 52//52 50//50
f 51//51 10//10 9//9
f 51//51 9//9 52//52
f 13//13 53//53 54//54
f 13//13 54//54 14//14
f 53//53 55//55 56//56
f 53//53 56//56 54//54
f 55//55 57//57 58//58
f 55//55 58//58 56//56
f 57//57 59//59 60//60
f 57//57 60//60 58//58
f 59//59 61//61 62//62
f 59//59 62//62 60//60
f 63//63 64//64 65//65
f 63//63 65//65 66//66
f 64//64 67//67 68//68
f 64//64 68//68 65//65
f 67//67 69//69 70//70
f 67//67 70//70 68//68
f 69//69 71//71 72//72
f 69//69 72//72 70//70
f 71//71 6//6 5//5
f 71//71 5//5 72//72
f 7//7 73//73 74//74
f 7//7 74//74 8//8
f 73//73 75//75 76//76
f 73//73 76//76 74//74
f 75//75 77//77 78//78
f 75//75 78//78 76//76
f 77//77 79//79 80//80
f 77//77 80//80 78//78
f 79//79 81//81 82//82
f 79//79 82//82 80//80
f 83//83 84//84 85//85
f 83//83 85//85 86//86
f 84//84 87//87 88//88
f 84//84 88//88 85//85
f 87//87 89//89 90//90
f 87//87 90//90 88//88
f 89//89 91//91 92//92
f 89//89 92//92 90//90
f 91//91 12//12 11//11
f 91//91 11//11 92//92
f 93//93 94//94 95//95
f 93//93 95//95 96//96
f 94//94 97//97 98//98
f 94//94 98//98 95//95
f 97//97 99//99 100//100
f 97//97 100//100 98//98
f 99//99 284//284 101//101
f 99//99 101//101 100//100
f 284//284 285//285 102//102
f 284//284 102//102 101//101
f 285//285 306//306 103//103
f 285//285 103//103 102//102
f 306//306 353//353 104//104
f 306//306 104//104 103//103
f 353//353 328//328 105//105
f 353//353 105//105 104//104
f 328//328 299//299 106//106
f 328//328 106//106 105//105
f 299//299 320//320 107//107
f 299//299 107//107 106//106
f 320//320 334//334 108//108
f 320//320 108//108 107//107
f 334//334 294//294 109//109
f 334//334 109//109 108//108
f 294//294 354//354 110//110
f 294//294 110//110 109//109
f 354//354 298//298 111//111
f 354//354 111//111 110//110
f 298//298 296//296 112//112
f 298//298 112//112 111//111
f 296//296 113//113 114//114
f 296//296 114//114 112//112
f 113//113 115//115 116//116
f 113//113 116//116 114//114
f 115//115 117//117 118//118
f 115//115 118//118 116//116
f 117//117 119//119 120//120
f 117//117 120//120 118//118
f 119//119 121//121 122//122
f 119//119 122//122 120//120
f 121//121 123//123 124//124
f 121//121 124//124 122//122
f 123//123 125//125 126//126
f 123//123 126//126 124//124
f 125//125 127//127 128//128
f 125//125 128//128 126//126
f 127//127 129//129 130//130
f 127//127 130//130 128//128
f 129//129 131//131 132//132
f 129//129 132//132 130//130
f 131//131 321//321 133//133
f 131//131 133//133 132//132
f 321//321 351//351 134//134
f 321//321 134//134 133//133
f 351//351 292//292 135//135
f 351//351 135//135 134//134
f 292//292 362//362 136//136
f 292//292 136//136 135//135
f 362//362 361//361 137//137
f 362//362 137//137 136//136
f 361//361 278//278 138//138
f 361//361 138//138 137//137
f 278//278 316//316 139//139
f 278//278 139//139 138//138
f 316//316 343//343 140//140
f 316//316 140//140 139//139
f 343//343 335//335 141//141
f 343//343 141//141 140//140
f 335//335 364//364 142//142
f 335//335 142//142 141//141
f 364//364 359//359 143//143
f 364//364 143//143 142//142
f 359//359 357//357 144//144
f 359//359 144//144 143//143
f 357//357 145//145 146//146
f 357//357 146//146 144//144
f 145//145 147//147 148//148
f 145//145 148//148 146//146
f 147//147 149//149 150//150
f 147//147 150//150 148//148
f 149//149 151//151 152//152
f 149//149 152//152 150//150
f 151//151 153//153 154//154
f 151//151 154//154 152//152
f 153//153 155//155 156//156
f 153//153 156//156 154//154
f 155//155 93//93 96//96
f 155//155 96//96 156//156
f 96//96 95//95 157//157
f 280//280 327//327 158//158
f 95//95 98//98 159//159
f 95//95 159//159 157//157
f 98//98 100//100 160//160
f 98//98 160//160 159//159
f 100//100 101//101 160//160
f 336//336 315//315 161//161
f 102//102 103//103 162//162
f 315//315 308//308 161//161
f 307//307 273//273 163//163
f 103//103 395//395 162//162
f 274//274 297//297 164//164
f 273//273 383//383 163//163
f 105//105 106//106 165//165
f 297//297 331//331 164//164
f 106//106 107//107 166//166
f 106//106 166//166 165//165
f 344//344 304//304 167//167
f 107//107 387//387 166//166
f 305//305 368//368 168//168
f 304//304 397//397 167//167
f 109//109 110//110 169//169
f 368//368 287//287 168//168
f 286//286 352//352 170//170
f 110//110 398//398 169//169
f 352//352 372//372 170//170
f 112//112 114//114 171//171
f 114//114 116//116 172//172
f 114//114 172//172 171//171
f 116//116 118//118 173//173
f 116//116 173//173 172//172
f 349//349 375//375 174//174
f 118//118 399//399 173//173
f 375//375 378//378 174//174
f 378//378 369//369 175//175
f 370//370 376//376 176//176
f 370//370 176//176 371//371
f 126//126 128//128 177//177
f 376//376 400//400 176//176
f 128//128 130//130 178//178
f 128//128 178//178 177//177
f 317//317 311//311 179//179
f 130//130 312//312 178//178
f 311//311 373//373 180//180
f 311//311 180//180 179//179
f 133//133 134//134 181//181
f 373//373 380//380 180//180
f 379//379 360//360 182//182
f 134//134 289//289 181//181
f 135//135 136//136 183//183
f 360//360 341//341 182//182
f 340//340 386//386 184//184
f 136//136 388//388 183//183
f 137//137 138//138 185//185
f 386//386 346//346 184//184
f 138//138 139//139 186//186
f 138//138 186//186 185//185
f 330//330 382//382 187//187
f 139//139 384//384 186//186
f 140//140 141//141 188//188
f 382//382 366//366 187//187
f 365//365 390//390 189//189
f 141//141 309//309 188//188
f 142//142 143//143 190//190
f 390//390 392//392 189//189
f 391//391 337//337 191//191
f 143//143 338//338 190//190
f 337//337 322//322 192//192
f 337//337 192//192 191//191
f 146//146 148//148 193//193
f 322//322 325//325 192//192
f 148//148 150//150 194//194
f 148//148 194//194 193//193
f 355//355 281//281 195//195
f 150//150 282//282 194//194
f 281//281 275//275 196//196
f 281//281 196//196 195//195
f 276//276 394//394 277//277
f 394//394 280//280 158//158
f 158//158 327//327 197//197
f 158//158 197//197 198//198
f 327//327 324//324 199//199
f 327//327 199//199 197//197
f 324//324 314//314 200//200
f 324//324 200//200 199//199
f 314//314 336//336 201//201
f 314//314 201//201 200//200
f 336//336 161//161 202//202
f 336//336 202//202 201//201
f 161//161 308//308 203//203
f 161//161 203//203 202//202
f 308//308 396//396 204//204
f 308//308 204//204 203//203
f 396//396 164//164 205//205
f 396//396 205//205 204//204
f 164//164 331//331 206//206
f 164//164 206//206 205//205
f 331//331 345//345 207//207
f 331//331 207//207 206//206
f 345//345 167//167 208//208
f 345//345 208//208 207//207
f 167//167 397//397 209//209
f 167//167 209//209 208//208
f 397//397 288//288 210//210
f 397//397 210//210 209//209
f 288//288 170//170 211//211
f 288//288 211//211 210//210
f 170//170 372//372 212//212
f 170//170 212//212 211//211
f 372//372 348//348 213//213
f 372//372 213//213 212//212
f 348//348 318//318 214//214
f 348//348 214//214 213//213
f 318//318 350//350 215//215
f 318//318 215//215 214//214
f 350//350 174//174 216//216
f 350//350 216//216 215//215
f 174//174 378//378 217//217
f 174//174 217//217 216//216
f 378//378 175//175 218//218
f 378//378 218//218 217//217
f 175//175 377//377 219//219
f 175//175 219//219 218//218
f 377//377 401//401 220//220
f 377//377 220//220 219//219
f 401//401 319//319 221//221
f 401//401 221//221 220//220
f 319//319 313//313 222//222
f 319//319 222//222 221//221
f 313//313 374//374 223//223
f 313//313 223//223 222//222
f 374//374 381//381 224//224
f 374//374 224//224 223//223
f 381//381 290//290 225//225
f 381//381 225//225 224//224
f 290//290 342//342 226//226
f 290//290 226//226 225//225
f 342//342 389//389 227//227
f 342//342 227//227 226//226
f 389//389 347//347 228//228
f 389//389 228//228 227//227
f 347//347 332//332 229//229
f 347//347 229//229 228//228
f 332//332 385//385 230//230
f 332//332 230//230 229//229
f 385//385 367//367 231//231
f 385//385 231//231 230//230
f 367//367 310//310 232//232
f 367//367 232//232 231//231
f 310//310 393//393 233//233
f 310//310 233//233 232//232
f 393//393 339//339 234//234
f 393//393 234//234 233//233
f 339//339 323//323 235//235
f 339//339 235//235 234//234
f 323//323 326//326 236//236
f 323//323 236//236 235//235
f 326//326 356//356 237//237
f 326//326 237//237 236//236
f 356//356 283//283 238//238
f 356//356 238//238 237//237
f 283//283 277//277 239//239
f 283//283 239//239 238//238
f 277//277 394//394 240//240
f 277//277 240//240 239//239
f 394//394 158//158 198//198
f 394//394 198//198 240//240
f 363//363 329//329 303//303
f 329//329 363//363 301//301
f 301//301 363//363 291//291
f 301//301 291//291 293//293
f 293//293 291//291 358//358
f 293//293 358//358 295//295
f 295//295 358//358 333//333
f 295//295 333//333 302//302
f 302//302 333//333 279//279
f 302//302 279//279 300//300
f 300//300 279//279 241//241
f 300//300 241//241 242//242
f 242//242 241//241 243//243
f 242//242 243//243 244//244
f 244//244 243//243 245//245
f 244//244 245//245 246//246
f 246//246 245//245 247//247
f 246//246 247//247 248//248
f 248//248 247//247 249//249
f 248//248 249//249 250//250
f 250//250 249//249 251//251
f 250//250 251//251 252//252
f 252//252 251//251 253//253
f 252//252 253//253 254//254
f 254//254 253//253 255//255
f 254//254 255//255 256//256
f 256//256 255//255 257//257
f 256//256 257//257 258//258
f 258//258 257//257 259//259
f 258//258 259//259 260//260
f 260//260 259//259 261//261
f 260//260 261//261 262//262
f 262//262 261//261 263//263
f 262//262 263//263 264//264
f 264//264 263//263 265//265
f 264//264 265//265 266//266
f 266//266 265//265 267//267
f 266//266 267//267 268//268
f 268//268 267//267 269//269
f 268//268 269//269 270//270
f 270//270 269//269 271//271
f 270//270 271//271 272//272
f 402//402 403//403 404//404
f 402//402 404//404 405//405
f 406//406 407//407 408//408
f 406//406 408//408 409//409
f 410//410 411//411 412//412
f 410//410 412//412 413//413
f 414//414 415//415 416//416
f 414//414 416//416 417//417
f 416//416 418//418 419//419
f 416//416 419//419 417//417
f 418//418 420//420 421//421
f 418//418 421//421 419//419
f 420//420 422//422 423//423
f 420//420 423//423 421//421
f 422//422 424//424 425//425
f 422//422 425//425 423//423
f 424//424 426//426 427//427
f 424//424 427//427 425//425
f 426//426 428//428 429//429
f 426//426 429//429 427//427
f 428//428 430//430 431//431
f 428//428 431//431 429//429
f 430//430 432//432 433//433
f 430//430 433//433 431//431
f 432//432 434//434 435//435
f 432//432 435//435 433//433
f 434//434 436//436 437//437
f 434//434 437//437 435//435
f 436//436 438//438 439//439
f 436//436 439//439 437//437
f 438//438 403//403 402//402
f 438//438 402//402 439//439
f 404//404 440//440 441//441
f 404//404 441//441 405//405
f 440//440 442//442 443//443
f 440//440 443//443 441//441
f 442//442 444//444 445//445
f 442//442 445//445 443//443
f 444//444 446//446 447//447
f 444//444 447//447 445//445
f 446//446 448//448 449//449
f 446//446 449//449 447//447
f 448//448 450//450 451//451
f 448//448 451//451 449//449
f 450//450 452//452 453//453
f 450//450 453//453 451//451
f 452//452 454//454 455//455
f 452//452 455//455 453//453
f 454//454 456//456 457//457
f 454//454 457//457 455//455
f 456//456 458//458 459//459
f 456//456 459//459 457//457
f 458//458 460//460 461//461
f 458//458 461//461 459//459
f 460//460 411//411 410//410
f 460//460 410//410 461//461
f 414//414 462//462 463//463
f 414//414 463//463 415//415
f 462//462 464//464 465//465
f 462//462 465//465 463//463
f 464//464 466//466 467//467
f 464//464 467//467 465//465
f 466//466 468//468 469//469
f 466//466 469//469 467//467
f 468//468 470//470 471//471
f 468//468 471//471 469//469
f 470//470 472//472 473//473
f 470//470 473//473 471//471
f 474//474 475//475 476//476
f 474//474 476//476 477//477
f 475//475 478//478 479//479
f 475//475 479//479 476//476
f 478//478 480//480 481//481
f 478//478 481//481 479//479
f 480//480 482//482 483//483
f 480//480 483//483 481//481
f 482//482 484//484 485//485
f 482//482 485//485 483//483
f 484//484 407//407 406//406
f 484//484 406//406 485//485
f 408//408 486//486 487//487
f 408//408 487//487 409//409
f 486//486 488//488 489//489
f 486//486 489//489 487//487
f 488//488 490//490 491//491
f 488//488 491//491 489//489
f 490//490 492//492 493//493
f 490//490 493//493 491//491
f 492//492 494//494 495//495
f 492//492 495//495 493//493
f 494//494 496//496 497//497
f 494//494 497//497 495//495
f 498//498 499//499 500//500
f 498//498 500//500 501//501
f 499//499 502//502 503//503
f 499//499 503//503 500//500
f 502//502 504//504 505//505
f 502//502 505//505 503//503
f 504//504 506//506 507//507
f 504//504 507//507 505//505
f 506//506 508//508 509//509
f 506//506 509//509 507//507
f 508//508 413//413 412//412
f 508//508 412//412 509//509
f 523//523 521//521 522//522
f 521//521 523//523 520//520
f 520//520 523//523 524//524
f 520//520 524//524 519//519
f 519//519 524//524 525//525
f 519//519 525//525 518//518
f 518//518 525//525 526//526
f 518//518 526//526 517//517
f 517//517 526//526 527//527
f 517//517 527//527 516//516
f 516//516 527//527 528//528
f 516//516 528//528 515//515
f 515//515 528//528 529//529
f 515//515 529//529 514//514
f 514//514 529//529 530//530
f 514//514 530//530 513//513
f 513//513 530//530 531//531
f 513//513 531//531 512//512
f 512//512 531//531 532//532
f 512//512 532//532 511//511
f 511//511 532//532 533//533
f 511//511 533//533 510//510
f 510//510 533//533 534//534
f 510//510 534//534 561//561
f 561//561 534//534 535//535
f 561//561 535//535 560//560
f 560//560 535//535 536//536
f 560//560 536//536 559//559
f 559//559 536//536 537//537
f 559//559 537//537 558//558
f 558//558 537//537 538//538
f 558//558 538//538 557//557
f 557//557 538//538 539//539
f 557//557 539//539 556//556
f 556//556 539//539 540//540
f 556//556 540//540 555//555
f 555//555 540//540 541//541
f 555//555 541//541 554//554
f 554//554 541//541 542//542
f 554//554 542//542 553//553
f 553//553 542//542 543//543
f 553//553 543//543 552//552
f 552//552 543//543 544//544
f 552//552 544//544 551//551
f 551//551 544//544 545//545
f 551//551 545//545 550//550
f 550//550 545//545 546//546
f 550//550 546//546 549//549
f 549//549 546//546 547//547
f 549//549 547//547 548//548
f 603//603 601//601 602//602
f 601//601 603//603 600//600
f 600//600 603//603 604//604
f 600//600 604//604 599//599
f 599//599 604//604 605//605
f 599//599 605//605 598//598
f 598//598 605//605 606//606
f 598//598 606//606 597//597
f 597//597 606//606 607//607
f 597//597 607//607 596//596
f 596//596 607//607 608//608
f 596//596 608//608 595//595
f 595//595 608//608 609//609
f 595//595 609//609 594//594
f 594//594 609//609 610//610
f 594//594 610//610 593//593
f 593//593 610//610 611//611
f 593//593 611//611 592//592
f 592//592 611//611 612//612
f 592//592 612//612 591//591
f 591//591 612//612 613//613
f 591//591 613//613 590//590
f 590//590 613//613 562//562
f 590//590 562//562 589//589
f 589//589 562//562 563//563
f 589//589 563//563 588//588
f 588//588 563//563 564//564
f 588//588 564//564 587//587
f 587//587 564//564 565//565
f 587//587 565//565 586//586
f 586//586 565//565 566//566
f 586//586 566//566 585//585
f 585//585 566//566 567//567
f 585//585 567//567 584//584
f 584//584 567//567 568//568
f 584//584 568//568 583//583
f 583//583 568//568 569//569
f 583//583 569//569 582//582
f 582//582 569//569 570//570
f 582//582 570//570 581//581
f 581//581 570//570 571//571
f 581//581 571//571 580//580
f 580//580 571//571 572//572
f 580//580 572//572 579//579
f 579//579 572//572 573//573
f 579//579 573//573 578//578
f 578//578 573//573 574//574
f 578//578 574//574 577//577
f 577//577 574//574 575//575
f 577//577 575//575 576//576
